#!OML:ASF E:\emotionWalksFemale\Project 1\Capture day 1\Session 1\Female1.ASF
:FULLY-SPECIFIED
:DEGREES
313
root 8.63837 13.8774 23.2742 192.303 0.0864103 179.945
lowerback 15.3188 0.341222 0.549013
upperback -2.63613 0.604781 0.319901
thorax -11.5309 0.264036 -0.112646
lowerneck -9.87044 2.97212 -1.55557
upperneck -12.2789 2.77196 0.201912
head -2.25719 0.862241 0.370559
rclavicle 7.45443e-016 -6.16232e-015
rhumerus -22.2486 4.89324 -83.2482
rradius 31.0049
rwrist 18.1026
rhand -7.81002 -60.1313
rfingers 7.12502
rthumb 18.0916 -89.3099
lclavicle 7.45443e-016 -6.16232e-015
lhumerus -39.0368 -1.81783 84.7834
lradius 35.8657
lwrist -9.90435
lhand -15.7313 -44.0517
lfingers 7.12502
lthumb 10.4594 -14.3318
rfemur -39.9531 -0.49801 25.3624
rtibia 65.0459
rfoot -34.6217 -22.1289
rtoes -5.76838
lfemur -43.7298 -2.32253 -22.1263
ltibia 66.7423
lfoot -34.8417 1.12088
ltoes -33.0054
314
root 8.66428 13.8409 23.2723 192.391 -0.717291 180.042
lowerback 15.4535 0.535465 0.730631
upperback -2.70171 0.882407 0.2304
thorax -11.6787 0.373815 -0.384009
lowerneck -9.94568 3.11057 -1.1784
upperneck -12.2154 2.91819 -0.272923
head -2.20887 0.936747 0.159708
rclavicle -2.88238e-015 -1.78906e-015
rhumerus -21.3548 6.6064 -84.5837
rradius 32.4591
rwrist 16.5202
rhand -7.31015 -60.7672
rfingers 7.12502
rthumb 18.5725 -89.9005
lclavicle -2.88238e-015 -1.78906e-015
lhumerus -39.2464 -1.53944 84.5734
lradius 35.3131
lwrist -10.4183
lhand -15.6404 -43.3516
lfingers 7.12502
lthumb 10.5471 -13.6363
rfemur -40.2639 -0.66889 25.7207
rtibia 65.6321
rfoot -34.9003 -22.5098
rtoes -3.9207
lfemur -44.3956 -2.67353 -21.7484
ltibia 67.4273
lfoot -34.5314 0.0727518
ltoes -31.7403
315
root 8.69045 13.8149 23.2616 192.335 -1.67758 179.948
lowerback 15.503 0.644762 0.691127
upperback -2.68299 1.02309 0.251267
thorax -11.6863 0.443446 -0.374692
lowerneck -9.93206 3.33855 -1.14038
upperneck -12.2256 3.20478 -0.765688
head -2.20619 1.09414 0.000384895
rclavicle 9.44227e-016 -1.19271e-015
rhumerus -20.1323 8.85266 -85.7112
rradius 33.608
rwrist 15.4563
rhand -7.10032 -61.1657
rfingers 7.12502
rthumb 18.7743 -269.72
lclavicle 9.44227e-016 -1.19271e-015
lhumerus -39.5571 -0.896028 84.5262
lradius 34.9614
lwrist -11.0905
lhand -14.9307 -41.7266
lfingers 7.12502
lthumb 11.2316 -12.0472
rfemur -40.2514 -1.05891 25.8938
rtibia 66.0405
rfoot -35.303 -22.9169
rtoes -2.62742
lfemur -44.6703 -3.24395 -21.5516
ltibia 67.8952
lfoot -34.415 -1.00068
ltoes -30.9013
316
root 8.72077 13.8004 23.2504 192.325 -2.71745 179.78
lowerback 15.5634 0.810823 0.573037
upperback -2.74902 1.21964 0.212597
thorax -11.7964 0.542028 -0.401522
lowerneck -9.73946 3.54602 -0.797204
upperneck -12.2843 3.42495 -1.54736
head -2.23581 1.21482 -0.303447
rclavicle -8.44835e-015 -2.5842e-015
rhumerus -18.7556 10.8404 -86.7705
rradius 34.4859
rwrist 14.9519
rhand -6.80699 -61.7095
rfingers 7.12502
rthumb 19.0564 -269.204
lclavicle -8.44835e-015 -2.5842e-015
lhumerus -40.1102 0.0956354 83.9897
lradius 33.0162
lwrist -15.725
lhand -19.5984 -46.2092
lfingers 7.12502
lthumb 6.7275 -16.336
rfemur -40.1634 -1.48527 26.0109
rtibia 66.2782
rfoot -35.5707 -23.4097
rtoes -2.17061
lfemur -44.8707 -3.89669 -21.4268
ltibia 68.1452
lfoot -34.344 -1.60332
ltoes -31.3366
317
root 8.7556 13.7975 23.2399 192.457 -3.77984 179.691
lowerback 15.43 1.00417 0.420584
upperback -2.85187 1.44849 0.203785
thorax -11.8358 0.660282 -0.381605
lowerneck -9.64123 3.78089 -0.180348
upperneck -12.2328 3.65022 -2.56743
head -2.20155 1.33105 -0.725997
rclavicle 2.2413e-014 1.17283e-014
rhumerus -17.5985 12.6711 -87.8118
rradius 35.7752
rwrist 14.6565
rhand -6.40386 -62.2897
rfingers 7.12502
rthumb 19.4441 -268.662
lclavicle 2.2413e-014 1.17283e-014
lhumerus -40.63 0.179938 84.0378
lradius 32.9988
lwrist -15.6872
lhand -19.1456 -45.635
lfingers 7.12502
lthumb 7.16458 -15.7763
rfemur -40.1531 -1.89473 26.2201
rtibia 66.3642
rfoot -35.85 -23.8084
rtoes -1.44889
lfemur -45.1534 -4.51315 -21.2154
ltibia 68.1665
lfoot -34.1126 -1.94663
ltoes -32.224
318
root 8.78611 13.7966 23.2271 192.666 -5.09515 179.659
lowerback 15.0071 1.15665 0.452814
upperback -2.86592 1.66253 0.257421
thorax -11.6011 0.763469 -0.385663
lowerneck -9.75237 4.03174 0.311239
upperneck -12.09 3.90982 -3.51764
head -2.10393 1.46305 -1.10218
rclavicle 1.98785e-015 -4.37326e-015
rhumerus -16.4389 14.3723 -88.6143
rradius 37.2779
rwrist 14.492
rhand -6.21505 -61.8247
rfingers 7.12502
rthumb 19.6256 -269.146
lclavicle 1.98785e-015 -4.37326e-015
lhumerus -40.8457 0.213377 84.2625
lradius 33.0466
lwrist -15.7422
lhand -16.5464 -41.5658
lfingers 7.12502
lthumb 9.67303 -11.8079
rfemur -40.1592 -2.5772 26.513
rtibia 66.2752
rfoot -36.1141 -24.1439
rtoes -0.945692
lfemur -45.4735 -5.32651 -20.9141
ltibia 67.9734
lfoot -33.7951 -2.52235
ltoes -31.666
319
root 8.80753 13.7991 23.2151 192.861 -6.55455 179.696
lowerback 14.6475 1.34698 0.829584
upperback -2.90567 1.98882 0.283343
thorax -11.4193 0.894861 -0.641433
lowerneck -9.88174 4.23405 0.634676
upperneck -11.8821 4.13691 -4.35733
head -1.98575 1.58578 -1.41578
rclavicle -3.30976e-014 9.14409e-015
rhumerus -15.3744 16.1482 -89.1649
rradius 38.949
rwrist 14.0621
rhand -6.33372 -61.143
rfingers 7.12502
rthumb 19.5115 -269.816
lclavicle -3.30976e-014 9.14409e-015
lhumerus -41.0033 0.0702403 84.5551
lradius 32.7023
lwrist -17.0556
lhand -16.1832 -41.0157
lfingers 7.12502
lthumb 10.0234 -11.2744
rfemur -40.1335 -3.51955 26.8827
rtibia 65.9531
rfoot -36.0395 -24.4292
rtoes -0.713765
lfemur -45.7413 -6.2225 -20.5776
ltibia 67.5668
lfoot -33.4188 -2.87664
ltoes -31.3025
320
root 8.83666 13.8314 23.183 192.743 -8.19305 179.74
lowerback 14.9599 1.52107 1.18326
upperback -3.23315 2.29965 0.293493
thorax -11.9575 1.00909 -0.921513
lowerneck -9.94922 4.40446 1.06653
upperneck -11.2513 4.38125 -5.23772
head -1.73288 1.73098 -1.75609
rclavicle 1.04362e-014 -3.97569e-015
rhumerus -15.4342 18.0612 -89.827
rradius 41.2921
rwrist 13.5466
rhand -5.87849 -61.6529
rfingers 7.12502
rthumb 19.9492 -269.351
lclavicle 1.04362e-014 -3.97569e-015
lhumerus -41.8527 -0.528595 84.847
lradius 32.1487
lwrist -18.3645
lhand -16.2409 -41.4414
lfingers 7.12502
lthumb 9.96773 -11.6975
rfemur -39.4431 -4.68005 27.2965
rtibia 65.2428
rfoot -35.6036 -24.9017
rtoes -1.07735
lfemur -45.3219 -7.09752 -20.2637
ltibia 66.8061
lfoot -33.227 -3.05489
ltoes -31.7727
321
root 8.86665 13.8874 23.1392 192.3 -9.32328 179.94
lowerback 15.1369 1.97792 1.49894
upperback -3.39601 2.97215 0.226472
thorax -12.2146 1.29397 -1.35144
lowerneck -9.7092 4.52646 1.78642
upperneck -10.7345 4.54494 -6.18008
head -1.56002 1.8322 -2.18095
rclavicle 5.18828e-014 -3.97569e-015
rhumerus -15.5468 19.8848 -90.4509
rradius 43.6176
rwrist 12.9272
rhand -6.12873 -61.7048
rfingers 7.12502
rthumb 19.7086 -269.274
lclavicle 5.18828e-014 -3.97569e-015
lhumerus -42.6115 -1.57602 85.1457
lradius 31.6129
lwrist -19.211
lhand -15.044 -40.6278
lfingers 7.12502
lthumb 11.1223 -10.9426
rfemur -38.1732 -5.43822 27.7006
rtibia 64.1708
rfoot -35.1264 -25.1973
rtoes -1.58291
lfemur -44.2195 -7.39293 -19.9703
ltibia 65.7699
lfoot -33.3001 -3.26924
ltoes -31.9476
322
root 8.8967 13.9656 23.0796 191.917 -10.5946 180.188
lowerback 14.6088 2.30942 1.55018
upperback -3.2039 3.4309 0.416784
thorax -11.6789 1.52577 -1.25481
lowerneck -10.3742 4.88706 2.17686
upperneck -9.98471 5.02402 -7.0576
head -1.15345 2.06054 -2.49826
rclavicle -6.85807e-015 1.07344e-014
rhumerus -14.3265 22.8208 -90.5863
rradius 45.2258
rwrist 11.8205
rhand -8.10929 -60.5056
rfingers 7.12502
rthumb 17.8037 -89.7106
lclavicle -6.85807e-015 1.07344e-014
lhumerus -42.7751 -1.49847 85.2372
lradius 30.9336
lwrist -20.6801
lhand -13.9947 -40.0199
lfingers 7.12502
lthumb 12.1342 -10.3918
rfemur -36.7062 -6.27512 28.1498
rtibia 62.6961
rfoot -35.0532 -25.085
rtoes -0.596112
lfemur -42.9696 -7.80568 -19.5595
ltibia 64.4042
lfoot -33.3292 -3.84704
ltoes -30.9163
323
root 8.94379 14.0465 23.0435 192.104 -12.7335 180.315
lowerback 13.8042 2.54926 1.62067
upperback -3.354 3.76022 0.52549
thorax -11.3663 1.68747 -1.2168
lowerneck -10.4121 5.15008 2.67808
upperneck -9.39434 5.40128 -7.8335
head -0.899032 2.25667 -2.82424
rclavicle -3.03147e-014 3.97569e-015
rhumerus -13.4496 24.9064 -90.4409
rradius 47.0921
rwrist 11.3494
rhand -8.66406 -59.9074
rfingers 7.12502
rthumb 17.2698 -89.1601
lclavicle -3.03147e-014 3.97569e-015
lhumerus -43.101 -1.76725 85.3264
lradius 30.3907
lwrist -22.5285
lhand -13.5493 -39.1942
lfingers 7.12502
lthumb 12.5636 -9.59196
rfemur -35.9574 -7.7112 28.747
rtibia 60.9919
rfoot -34.8082 -25.0761
rtoes 0.499047
lfemur -42.6286 -8.85708 -18.9737
ltibia 62.8301
lfoot -32.7707 -4.61984
ltoes -30.11
